<svg version="1.1" id="Layer_1" xmlns="http://www.w3.org/2000/svg" xmlns:xlink="http://www.w3.org/1999/xlink" x="0px" y="0px"
	 viewBox="0 0 709.4 1020.8" style="enable-background:new 0 0 709.4 1020.8;" xml:space="preserve">
<style type="text/css">
	.mst0{fill:#D1AA3F;}
	.mst1{fill-rule:evenodd;clip-rule:evenodd;fill:#1757B6;}
	.mst2{fill-rule:evenodd;clip-rule:evenodd;fill:#DC710F;}
	.mst3{fill:#DC710F;}
	.mst4{fill:#F5D35E;}
</style>
<path class="mst0" d="M420.7,510.4c0,0-52.6,27.9-159.5,27.9S93.4,510.4,93.4,510.4s145.3,178.2,150.3,510.4c124.7,0,271.3,0,271.3,0
	L420.7,510.4z"/>
<path class="mst1" d="M552.9,543.4L552.9,543.4c-20-20-52.3-20-72.3,0l-65.3,65.3l-15.8-269.3H114.4l-40,681.3h365.1l-16.2-275.5
	l129.6-129.6C572.9,595.8,572.9,563.4,552.9,543.4z"/>
<path class="mst2" d="M367.5,259.8l-57.7-150.3l-72.1-85.1c-2-2.4-4.7-4.1-7.8-5L162.7,0.4c-4.1-1.2-8.5,0.4-11,4l-33.4,49.5
	c-3.3,4.9-2.5,11.2,2,15c4.5,3.8,10.8,3.6,15.1-0.4l23-21.7l30.4,17.6l7.6,73.2v0c-2.2,2.1-3.7,4.9-4.2,7.9l-12.4,72.7h0
	c-5.9,1.8-10.6,6-13,11.7l-10.3,24.4c-43.7-1.3-83,16.3-103,27.2c-25,13.6-52.3,34.9-53.4,49.6c-1,13.1,4.3,21.1,9,25.5
	c5.3,5.1,12.7,8.2,20.6,8.8c4.4,0.3,13.3-1.1,29.8-3.9c25.4-4.3,63.8-10.8,90-8.9c39.9,2.9,79.7,15.4,114.7,26.3
	c33.8,10.6,65.8,20.6,92.9,20.6l0,0c38.2,0,78-7.5,106.4-20.1c4.8-2.2,5.8-8.6,1.9-12.1l-4.6-4.1l22.3,3.1c1.9,0.3,3.9-0.3,5.5-1.5
	c16.4-12.7,24.6-27.9,24.6-45.3C513.3,269.2,396.1,261,367.5,259.8z M360.6,307.9c-1.4,2.4-9.5,6.5-26.4,9.4l-14.5,1.9
	c-5.7,0.6-12,1-19,1.2l0,0.2c-3.7-2.4-7.4-4.9-11.2-7.3l0,0c-13.4-8.8-27.4-18-41.7-26.5c3.8,0.2,7.6,0.3,11.7,0.3h0.6
	c23.5,0,42.2-0.9,57-2.2l14.5-1.6c10.9-1.5,18.9-3.4,24.7-5.5L360.6,307.9z"/>
<path class="mst3" d="M662.1,462.3l-101.3-41.4c-1.9-0.8-3.9-1.1-5.8-1.1c-6,0-11.8,3.6-14.2,9.5L448.9,654c-3.2,7.8,0.6,16.8,8.4,20
	l167.2,68.3c1.9,0.8,3.9,1.1,5.8,1.1c6,0,11.8-3.6,14.2-9.5l64.9-158.8l0,0L662.1,462.3z M642.5,567.2c-19.3-8.5-28.2-31-19.9-50.4
	l20.3-47.7l46.4,118.8L642.5,567.2z"/>
<path class="mst4" d="M94.4,510.4c0,0,52.6,27.9,159.5,27.9s167.7-27.9,167.7-27.9s-145.3,178.2-150.3,510.4
	c-124.7,0-271.3,0-271.3,0L94.4,510.4z"/>
</svg>