<?xml version="1.0" encoding="utf-8"?>
<!-- Generator: Adobe Illustrator 28.0.0, SVG Export Plug-In . SVG Version: 6.00 Build 0)  -->
<svg version="1.1" id="Layer_1" xmlns="http://www.w3.org/2000/svg" xmlns:xlink="http://www.w3.org/1999/xlink" x="0px" y="0px"
	 viewBox="0 0 709.4 1020.8" style="enable-background:new 0 0 709.4 1020.8;" xml:space="preserve">
<style type="text/css">
	.st0{fill:#F5D35E;}
	.st1{fill:#1757B6;}
	.st2{fill:#DC710F;}
</style>
<path class="st0" d="M601.4,68.3L438.9,1.8c-3-1.2-6.2-1.8-9.3-1.8c-9.7,0-18.9,5.8-22.8,15.3l-50.1,122.5l136,74.4l8.8,29.5
	l-146.8,58.9l-55-23.3l-40.2,98.5c-5.1,12.6,0.9,27,13.5,32.1l268.3,109.6c3,1.2,6.2,1.8,9.3,1.8c9.7,0,18.9-5.8,22.8-15.3
	l104.1-254.9l0,0L601.4,68.3z M570.1,236.5c-31-13.7-45.3-49.7-32-80.9L570.7,79l74.5,190.6L570.1,236.5z"/>
<path class="st1" d="M626.1,1020.8c6.1-12.9,6.4-28.4-0.6-41.8l0,0l-28.8-55.4c69.3-54.1,112.7-130.9,112.7-216.2
	c0-63.2-24.1-124.2-68.3-174.7c6.4-2.1,12.4-5.5,17.6-10.5c8.1-8.3,12.5-19.1,12.5-30.5c0-23.3-18.6-42.3-41.8-43.1l-548,0
	c-11.3,0-22.4,4.6-30.6,12.8c-10.6,10.9-14.8,26.2-11.3,40.8c3.6,14.6,14.6,25.8,28.7,30.5C24.1,583.1,0,644.2,0,707.4
	C0,796,46.9,875.6,121.1,929.9L95.6,979c-7,13.4-6.7,28.8-0.6,41.8H626.1z M64.4,706c0-1.2,0-2.4,0-3.5c0.1-8.3,7.4-14.7,15.7-13.9
	l0,0c7.4,0.7,13.1,7,13,14.4c0,1,0,2,0,3l0,0c0,67.3,40.4,130.4,111.4,174.7c6.5,4.1,8.6,12.6,4.8,19.2v0c-4,7.1-13.2,9.4-20.1,5.1
	C109.7,855.4,64.4,783.5,64.4,706z M182.6,1020.8l36.4-39.8c41.8,14.5,87.7,22.6,135.7,22.6c51.4,0,100.3-9.3,144.4-25.8l39.3,43
	H182.6z"/>
<path class="st2" d="M568,401.9l-61.9-207.3v0L277.8,71.3L55.2,137.7c-17.2,5.1-27,23.3-21.9,40.5l66.8,223.7l13.8,46.2h48.7h370.4
	h48.7L568,401.9z M387.7,257.3c-41.5,12.4-85.3-10.9-98.2-52.2l-31.8-101.6l230.6,123.8L387.7,257.3z"/>
<g id="cpD8Z0_00000173139714068346553100000018303470794496431280_">
	
		<image style="overflow:visible;" width="464" height="680" id="cpD8Z0_00000142880491719596096830000015957158209350738592_" xlink:href="24C715E0A058F007.png"  transform="matrix(0.5 0 0 0.5 -875.0792 124.2739)">
	</image>
</g>
</svg>