<?xml version="1.0" encoding="utf-8"?>
<!-- Generator: Adobe Illustrator 27.7.0, SVG Export Plug-In . SVG Version: 6.00 Build 0)  -->
<svg version="1.1" id="Layer_1" xmlns="http://www.w3.org/2000/svg" xmlns:xlink="http://www.w3.org/1999/xlink" x="0px" y="0px"
	 viewBox="0 0 180.5 149.7" style="enable-background:new 0 0 180.5 149.7;" xml:space="preserve">
<style type="text/css">
	.st0{fill:#F4D35E;}
	.st1{fill:#0F3875;}
	.st2{fill:#1857B6;}
</style>
<g id="Horiz_Light">
	<path class="st0" d="M157.8,11.7c0.7,0,1.4,0.1,2.1,0.2c5.1,1,8.8,5.4,8.9,10.6v0.1c0,6-5,10.9-11,10.9H38
		c1.2-3.5,1.8-7.2,1.8-10.8v-0.2c0-3.7-0.6-7.3-1.8-10.8L157.8,11.7 M18.1,0c-0.3,0-1.7,0.1-2,0.9c-0.4,0.7-0.1,1.6,0.6,2.1
		c7.1,4,11.4,11.5,11.5,19.6v0.1c-0.1,8.1-4.4,15.6-11.5,19.6c-0.7,0.4-1,1.3-0.6,2c0.3,0.8,1.7,0.9,2,0.9h139.8
		c12.5,0,22.6-10.1,22.7-22.5v-0.1C180.4,10.1,170.3,0,157.8,0H18.1z"/>
	<path class="st1" d="M157.8,116.2c0.7,0,1.4,0.1,2.1,0.2c5.1,1,8.8,5.4,8.9,10.6v0.1c0,6-5,10.9-11,10.9H38
		c1.2-3.5,1.8-7.2,1.8-10.8v-0.2c0-3.7-0.6-7.3-1.8-10.8H157.8 M18.1,104.5c-0.3,0-1.7,0-2,0.9c-0.3,0.7-0.1,1.6,0.6,2
		c7.1,4,11.5,11.5,11.5,19.6v0.2c-0.1,8.1-4.4,15.6-11.5,19.6c-0.7,0.4-1,1.3-0.6,2.1c0.3,0.8,1.7,0.9,2,0.9h139.8
		c1.4,0,2.9-0.1,4.3-0.4c10.6-2,18.3-11.3,18.4-22.1V127c-0.1-12.5-10.2-22.5-22.7-22.5C157.8,104.5,18.1,104.5,18.1,104.5z"/>
	<path class="st2" d="M142.5,63.8c-1.2,3.5-1.8,7.2-1.8,10.8v0.2c0,3.7,0.6,7.3,1.8,10.8H22.7c-0.7,0-1.4-0.1-2.1-0.2
		c-5.1-1-8.8-5.4-8.9-10.6v-0.1c0-6,5-10.9,11-10.9L142.5,63.8 M162.4,52.1H22.7C10.2,52.1,0.1,62.2,0,74.7v0.2
		c0.1,12.5,10.2,22.5,22.7,22.5h139.8c0.3,0,1.7,0,2-0.9c0.4-0.7,0.1-1.6-0.6-2.1c-7.1-4-11.5-11.5-11.5-19.6v-0.2
		c0-8.1,4.4-15.6,11.5-19.6c0.7-0.4,1-1.3,0.6-2C164.1,52.2,162.7,52.1,162.4,52.1L162.4,52.1z"/>
</g>
</svg>
