<?xml version="1.0" encoding="utf-8"?>
<!-- Generator: Adobe Illustrator 27.7.0, SVG Export Plug-In . SVG Version: 6.00 Build 0)  -->
<svg version="1.1" id="Layer_1" xmlns="http://www.w3.org/2000/svg" xmlns:xlink="http://www.w3.org/1999/xlink" x="0px" y="0px"
	 viewBox="0 0 243.3 93.8" style="enable-background:new 0 0 243.3 93.8;" xml:space="preserve">
<style type="text/css">
	.st0{fill:#12233B;}
	.st1{fill-rule:evenodd;clip-rule:evenodd;fill:#F3D25E;}
	.st2{fill:#638BC4;}
	.st3{fill:#305CA5;}
	.st4{fill:#273D72;}
</style>
<g>
	<path class="st0" d="M13.4,75.2c-0.1,0.1-0.2,0.2-0.3,0.3c-0.1,0.1-0.2,0.1-0.3,0.1c-0.1,0-0.3-0.1-0.5-0.2s-0.4-0.3-0.7-0.4
		c-0.3-0.2-0.6-0.3-1-0.4c-0.4-0.1-0.9-0.2-1.4-0.2s-1,0.1-1.3,0.2c-0.4,0.1-0.7,0.3-1,0.5c-0.3,0.2-0.5,0.5-0.6,0.8
		c-0.1,0.3-0.2,0.6-0.2,1c0,0.5,0.1,0.9,0.4,1.2c0.2,0.3,0.5,0.6,0.9,0.8s0.8,0.4,1.3,0.6c0.5,0.2,1,0.3,1.5,0.5
		c0.5,0.2,1,0.4,1.5,0.6c0.5,0.2,0.9,0.5,1.3,0.9c0.4,0.3,0.7,0.8,0.9,1.3c0.2,0.5,0.4,1.1,0.4,1.8c0,0.8-0.1,1.5-0.4,2.2
		c-0.3,0.7-0.6,1.3-1.1,1.8s-1.1,0.9-1.8,1.2c-0.7,0.3-1.6,0.4-2.5,0.4c-0.6,0-1.1-0.1-1.6-0.2c-0.5-0.1-1-0.3-1.5-0.5
		c-0.5-0.2-0.9-0.4-1.3-0.7c-0.4-0.3-0.8-0.6-1.1-0.9l0.7-1.2c0.1-0.1,0.2-0.2,0.3-0.2s0.2-0.1,0.3-0.1c0.2,0,0.4,0.1,0.6,0.3
		c0.2,0.2,0.5,0.4,0.8,0.6c0.3,0.2,0.7,0.4,1.2,0.6c0.5,0.2,1,0.3,1.7,0.3c0.5,0,1-0.1,1.4-0.2c0.4-0.1,0.8-0.3,1.1-0.6
		c0.3-0.3,0.5-0.6,0.7-0.9c0.2-0.4,0.2-0.8,0.2-1.2c0-0.5-0.1-0.9-0.4-1.2c-0.2-0.3-0.5-0.6-0.9-0.8c-0.4-0.2-0.8-0.4-1.3-0.6
		c-0.5-0.2-1-0.3-1.5-0.5c-0.5-0.2-1-0.4-1.5-0.6c-0.5-0.2-0.9-0.5-1.3-0.9c-0.4-0.4-0.7-0.8-0.9-1.3c-0.2-0.5-0.4-1.2-0.4-2
		c0-0.6,0.1-1.2,0.4-1.8c0.2-0.6,0.6-1.1,1.1-1.5c0.5-0.4,1-0.8,1.7-1.1c0.7-0.3,1.5-0.4,2.3-0.4c1,0,1.9,0.2,2.7,0.5
		c0.8,0.3,1.5,0.8,2.1,1.3L13.4,75.2z"/>
	<path class="st0" d="M28,87.6v2.1H17.2V72.3H28v2.1h-8.2v5.5h6.6v2h-6.6v5.7H28z"/>
	<path class="st0" d="M48.7,72.3v17.4h-2.2V77.4c0-0.2,0-0.4,0-0.6c0-0.2,0-0.4,0-0.6l-5.8,10.6c-0.2,0.4-0.5,0.6-0.9,0.6h-0.4
		c-0.4,0-0.7-0.2-0.9-0.6l-5.9-10.6c0,0.5,0.1,0.9,0.1,1.3v12.4h-2.3V72.3h1.9c0.2,0,0.4,0,0.5,0.1c0.1,0,0.2,0.2,0.4,0.4L39,83.2
		c0.1,0.2,0.2,0.4,0.3,0.7c0.1,0.2,0.2,0.5,0.3,0.7c0.2-0.5,0.4-0.9,0.6-1.4l5.7-10.4c0.1-0.2,0.2-0.3,0.3-0.4
		c0.1,0,0.3-0.1,0.5-0.1H48.7z"/>
	<path class="st0" d="M67,89.7h-2c-0.2,0-0.4-0.1-0.6-0.2c-0.1-0.1-0.2-0.3-0.3-0.4l-1.5-4h-7.7l-1.5,4c-0.1,0.2-0.2,0.3-0.3,0.4
		c-0.2,0.1-0.3,0.2-0.6,0.2h-2l6.9-17.4H60L67,89.7z M61.9,83.2l-2.6-6.7c-0.2-0.5-0.4-1-0.6-1.7c-0.1,0.3-0.2,0.7-0.3,1
		c-0.1,0.3-0.2,0.6-0.3,0.8l-2.6,6.7L61.9,83.2L61.9,83.2z"/>
	<path class="st0" d="M83.1,72.3v17.4h-1.3c-0.2,0-0.4,0-0.5-0.1s-0.3-0.2-0.4-0.4l-9.8-12.7c0,0.2,0,0.4,0,0.6c0,0.2,0,0.4,0,0.6
		v11.9h-2.3V72.3h1.3c0.2,0,0.4,0,0.5,0.1c0.1,0.1,0.2,0.2,0.4,0.4l9.8,12.7c0-0.2,0-0.5-0.1-0.7c0-0.2,0-0.4,0-0.6V72.3H83.1z"/>
	<path class="st0" d="M98.8,74.5h-5.5v15.2h-2.6V74.5h-5.5v-2.2h13.6V74.5z"/>
	<path class="st0" d="M103.4,89.7h-2.6V72.3h2.6V89.7z"/>
	<path class="st0" d="M119.5,86c0.1,0,0.3,0.1,0.4,0.2l1,1.1c-0.7,0.8-1.6,1.5-2.6,1.9c-1,0.5-2.2,0.7-3.7,0.7
		c-1.3,0-2.4-0.2-3.4-0.7s-1.9-1-2.6-1.8c-0.7-0.8-1.3-1.7-1.7-2.8s-0.6-2.3-0.6-3.6c0-1.3,0.2-2.5,0.6-3.6c0.4-1.1,1-2,1.7-2.8
		c0.7-0.8,1.6-1.4,2.7-1.8c1-0.4,2.2-0.7,3.5-0.7c1.2,0,2.3,0.2,3.3,0.6s1.8,0.9,2.5,1.6l-0.8,1.2c-0.1,0.1-0.1,0.2-0.2,0.2
		c-0.1,0.1-0.2,0.1-0.3,0.1c-0.2,0-0.3-0.1-0.5-0.2c-0.2-0.2-0.5-0.3-0.8-0.5c-0.3-0.2-0.7-0.4-1.2-0.5c-0.5-0.2-1.1-0.2-1.8-0.2
		c-0.9,0-1.7,0.2-2.4,0.5c-0.7,0.3-1.3,0.7-1.9,1.3c-0.5,0.6-0.9,1.3-1.2,2.1c-0.3,0.8-0.4,1.8-0.4,2.8c0,1.1,0.1,2,0.4,2.8
		c0.3,0.8,0.7,1.5,1.2,2.1s1.1,1,1.9,1.3c0.7,0.3,1.5,0.4,2.3,0.4c0.5,0,0.9,0,1.3-0.1c0.4-0.1,0.8-0.2,1.1-0.3s0.7-0.3,0.9-0.5
		c0.3-0.2,0.6-0.4,0.9-0.7c0.1-0.1,0.1-0.1,0.2-0.1C119.4,86,119.4,86,119.5,86z"/>
	<path class="st0" d="M139,75.7c-0.1,0.2-0.2,0.3-0.4,0.4c-0.1,0.1-0.3,0.1-0.5,0.1s-0.4-0.1-0.6-0.2c-0.2-0.1-0.5-0.2-0.7-0.4
		c-0.3-0.1-0.6-0.3-0.9-0.4c-0.3-0.1-0.7-0.2-1.2-0.2c-0.8,0-1.3,0.2-1.7,0.5c-0.4,0.3-0.6,0.8-0.6,1.3c0,0.4,0.1,0.6,0.3,0.9
		c0.2,0.2,0.5,0.4,0.9,0.6c0.4,0.2,0.8,0.3,1.3,0.5c0.5,0.1,1,0.3,1.4,0.5c0.5,0.2,1,0.4,1.4,0.6c0.5,0.2,0.9,0.5,1.3,0.9
		c0.4,0.4,0.7,0.8,0.9,1.3s0.3,1.1,0.3,1.9s-0.1,1.6-0.4,2.3c-0.3,0.7-0.7,1.3-1.2,1.9c-0.5,0.5-1.2,0.9-2,1.2
		c-0.8,0.3-1.7,0.5-2.7,0.5c-0.5,0-1.1-0.1-1.7-0.2c-0.6-0.1-1.1-0.3-1.6-0.5c-0.5-0.2-1-0.4-1.5-0.7c-0.5-0.3-0.9-0.6-1.2-0.9
		l1.2-1.9c0.1-0.1,0.2-0.3,0.4-0.3c0.2-0.1,0.3-0.1,0.5-0.1s0.5,0.1,0.7,0.2c0.2,0.2,0.5,0.3,0.8,0.5c0.3,0.2,0.7,0.4,1.1,0.5
		c0.4,0.2,0.9,0.2,1.4,0.2c0.7,0,1.3-0.2,1.7-0.5c0.4-0.3,0.6-0.8,0.6-1.6c0-0.4-0.1-0.7-0.3-1c-0.2-0.3-0.5-0.5-0.9-0.6
		c-0.4-0.2-0.8-0.3-1.3-0.4s-0.9-0.3-1.4-0.4c-0.5-0.2-1-0.4-1.4-0.6c-0.5-0.2-0.9-0.5-1.3-0.9c-0.4-0.4-0.7-0.8-0.9-1.4
		c-0.2-0.6-0.3-1.3-0.3-2.1c0-0.7,0.1-1.3,0.4-1.9c0.3-0.6,0.7-1.2,1.2-1.7s1.1-0.9,1.9-1.2c0.7-0.3,1.6-0.4,2.6-0.4
		c0.5,0,1.1,0,1.6,0.1s1,0.2,1.5,0.4s0.9,0.4,1.3,0.6c0.4,0.2,0.8,0.5,1.1,0.8L139,75.7z"/>
	<path class="st0" d="M154.2,85.1c0.1,0,0.2,0,0.3,0.1c0.1,0,0.2,0.1,0.3,0.2l1.6,1.7c-0.7,0.9-1.6,1.6-2.7,2.1
		c-1.1,0.5-2.3,0.7-3.8,0.7c-1.3,0-2.5-0.2-3.6-0.7s-2-1.1-2.7-1.9s-1.3-1.8-1.7-2.9s-0.6-2.3-0.6-3.6c0-1.3,0.2-2.5,0.6-3.6
		c0.4-1.1,1-2,1.8-2.8c0.8-0.8,1.7-1.4,2.8-1.9c1.1-0.4,2.3-0.7,3.6-0.7c0.7,0,1.3,0.1,1.9,0.2c0.6,0.1,1.1,0.3,1.6,0.5
		c0.5,0.2,1,0.5,1.4,0.7c0.4,0.3,0.8,0.6,1.1,0.9l-1.4,1.8c-0.1,0.1-0.2,0.2-0.3,0.3c-0.1,0.1-0.3,0.1-0.5,0.1c-0.1,0-0.3,0-0.4-0.1
		c-0.1-0.1-0.3-0.1-0.4-0.2s-0.3-0.2-0.5-0.3s-0.4-0.2-0.6-0.3c-0.2-0.1-0.5-0.2-0.8-0.2s-0.7-0.1-1.1-0.1c-0.7,0-1.3,0.1-1.9,0.4
		c-0.6,0.2-1,0.6-1.5,1.1c-0.4,0.5-0.7,1.1-0.9,1.8c-0.2,0.7-0.3,1.5-0.3,2.4c0,0.9,0.1,1.7,0.4,2.4c0.2,0.7,0.6,1.3,1,1.8
		s0.9,0.8,1.5,1.1c0.6,0.2,1.2,0.4,1.8,0.4c0.4,0,0.7,0,1-0.1c0.3,0,0.6-0.1,0.9-0.2c0.3-0.1,0.5-0.2,0.7-0.3s0.5-0.3,0.7-0.5
		c0.1-0.1,0.2-0.1,0.3-0.2C154,85.2,154.1,85.1,154.2,85.1z"/>
	<path class="st0" d="M173.2,72.1v17.6h-4.1v-7.4h-7.2v7.4h-4.1V72.1h4.1v7.4h7.2v-7.4H173.2z"/>
	<path class="st0" d="M193.7,80.9c0,1.3-0.2,2.5-0.7,3.6c-0.4,1.1-1.1,2-1.9,2.9c-0.8,0.8-1.8,1.4-2.9,1.9s-2.4,0.7-3.7,0.7
		c-1.4,0-2.6-0.2-3.7-0.7s-2.1-1.1-2.9-1.9c-0.8-0.8-1.4-1.8-1.9-2.9c-0.4-1.1-0.7-2.3-0.7-3.6c0-1.3,0.2-2.5,0.7-3.6s1.1-2,1.9-2.9
		c0.8-0.8,1.8-1.4,2.9-1.9s2.4-0.7,3.7-0.7c1.4,0,2.6,0.2,3.7,0.7s2.1,1.1,2.9,1.9c0.8,0.8,1.4,1.8,1.9,2.9
		C193.4,78.4,193.7,79.6,193.7,80.9z M189.5,80.9c0-0.9-0.1-1.7-0.3-2.4c-0.2-0.7-0.5-1.3-1-1.8s-0.9-0.9-1.6-1.1
		c-0.6-0.3-1.3-0.4-2.1-0.4c-0.8,0-1.5,0.1-2.1,0.4c-0.6,0.3-1.1,0.6-1.6,1.1c-0.4,0.5-0.7,1.1-1,1.8c-0.2,0.7-0.3,1.5-0.3,2.4
		c0,0.9,0.1,1.7,0.3,2.4c0.2,0.7,0.5,1.3,1,1.8c0.4,0.5,0.9,0.9,1.6,1.1c0.6,0.3,1.3,0.4,2.1,0.4c0.8,0,1.5-0.1,2.1-0.4
		s1.1-0.6,1.6-1.1s0.7-1.1,1-1.8C189.4,82.6,189.5,81.8,189.5,80.9z"/>
	<path class="st0" d="M206.5,86.4v3.3h-10.6V72.1h4.1v14.3H206.5z"/>
	<path class="st0" d="M224.8,89.7h-3.2c-0.4,0-0.6-0.1-0.9-0.2c-0.2-0.2-0.4-0.4-0.5-0.6l-1-3.1h-6.7l-1,3.1
		c-0.1,0.2-0.2,0.4-0.5,0.6c-0.2,0.2-0.5,0.3-0.9,0.3h-3.2l6.8-17.6h4.2L224.8,89.7z M218.3,83l-1.6-4.8c-0.1-0.3-0.2-0.7-0.4-1.1
		c-0.1-0.4-0.3-0.9-0.4-1.3c-0.1,0.5-0.2,0.9-0.4,1.4c-0.1,0.4-0.3,0.8-0.4,1.1l-1.6,4.8h4.8V83z"/>
	<path class="st0" d="M240.4,89.7h-3.7c-0.7,0-1.2-0.3-1.5-0.8l-2.9-5.1c-0.1-0.2-0.3-0.4-0.5-0.5s-0.4-0.2-0.7-0.2h-1v6.5H226V72.1
		h5.7c1.3,0,2.4,0.1,3.3,0.4c0.9,0.3,1.6,0.6,2.2,1.1s1,1,1.2,1.7c0.3,0.6,0.4,1.3,0.4,2.1c0,0.6-0.1,1.1-0.2,1.6
		c-0.2,0.5-0.4,1-0.7,1.4c-0.3,0.4-0.7,0.8-1.1,1.2c-0.4,0.3-0.9,0.6-1.5,0.8c0.3,0.1,0.5,0.3,0.7,0.5s0.4,0.4,0.6,0.7L240.4,89.7z
		 M231.7,80.4c0.6,0,1-0.1,1.4-0.2s0.7-0.3,1-0.6c0.2-0.2,0.4-0.5,0.5-0.9c0.1-0.3,0.2-0.7,0.2-1.1c0-0.8-0.3-1.4-0.8-1.8
		s-1.3-0.7-2.3-0.7h-1.6v5.2L231.7,80.4L231.7,80.4z"/>
</g>
<g id="S2_Logo_1_">
	<g>
		<path class="st1" d="M163.3,22.3c-2.9,1.8-5,2.9-7.4,4.3c-14.4,8.7-28.3,18.4-39,31.1l-5.2,6.3L95.9,38.8
			c3.5,2.8,12.4,10.7,16,12.5l11.6-8.8C131.6,36.8,154.5,24.4,163.3,22.3z"/>
	</g>
	<path class="st2" d="M103.3,41.1c0.4,0.3,0.7,0.6,1.1,0.9c-3.1-8.7-8.6-17.4-16.4-24.9c-2.6,0-5.2,0-7.9,0
		C90.1,24.3,97.9,32.7,103.3,41.1z"/>
	<path class="st3" d="M105.9,43.4c0.3,0.3,0.7,0.5,1,0.8c-0.5-11.8-4.9-23.9-13.3-34.3c-2.5,0-5,0-7.5,0
		C96.8,19.8,103.4,31.8,105.9,43.4z"/>
	<path class="st4" d="M108,45.1c1.2,1,2.4,1.9,3.4,2.6c2.6-12.7,0.4-26.4-6.5-38.3c11.7-0.2,23.4-0.3,35-0.5
		c2.6,5.8,4.1,12,4.5,18.4c1-0.5,2-1,3.1-1.5c-0.5-6.6-2.3-13.6-5.8-21.8c-16,0-31.9,0-47.9,0C104.2,16.3,108.9,31.2,108,45.1z"/>
</g>
</svg>
